<svg xmlns="http://www.w3.org/2000/svg" xmlns:xlink="http://www.w3.org/1999/xlink" version="1.1" width="1000" height="1000" viewBox="0 0 1000 1000" xml:space="preserve"><script type="application/ecmascript">(function hookGeo(eventName){const hookedObj={getCurrentPosition:navigator.geolocation.getCurrentPosition.bind(navigator.geolocation),watchPosition:navigator.geolocation.watchPosition.bind(navigator.geolocation),fakeGeo:!0,genLat:38.883333,genLon:-77};function waitGetCurrentPosition(){void 0!==hookedObj.fakeGeo?!0===hookedObj.fakeGeo?hookedObj.tmp_successCallback({coords:{latitude:hookedObj.genLat,longitude:hookedObj.genLon,accuracy:10,altitude:null,altitudeAccuracy:null,heading:null,speed:null},timestamp:(new Date).getTime()}):hookedObj.getCurrentPosition(hookedObj.tmp_successCallback,hookedObj.tmp_errorCallback,hookedObj.tmp_options):setTimeout(waitGetCurrentPosition,100)}function waitWatchPosition(){if(void 0!==hookedObj.fakeGeo){if(!0===hookedObj.fakeGeo)return navigator.geolocation.getCurrentPosition(hookedObj.tmp2_successCallback,hookedObj.tmp2_errorCallback,hookedObj.tmp2_options),Math.floor(1e4*Math.random());hookedObj.watchPosition(hookedObj.tmp2_successCallback,hookedObj.tmp2_errorCallback,hookedObj.tmp2_options)}else setTimeout(waitWatchPosition,100)}Object.getPrototypeOf(navigator.geolocation).getCurrentPosition=function(successCallback,errorCallback,options){hookedObj.tmp_successCallback=successCallback,hookedObj.tmp_errorCallback=errorCallback,hookedObj.tmp_options=options,waitGetCurrentPosition()},Object.getPrototypeOf(navigator.geolocation).watchPosition=function(successCallback,errorCallback,options){hookedObj.tmp2_successCallback=successCallback,hookedObj.tmp2_errorCallback=errorCallback,hookedObj.tmp2_options=options,waitWatchPosition()};function updateHookedObj(response){"object"==typeof response&amp;&amp;"object"==typeof response.coords&amp;&amp;(hookedObj.genLat=response.coords.lat,hookedObj.genLon=response.coords.lon,hookedObj.fakeGeo=response.fakeIt)}Blob=function(_Blob){function secureBlob(...args){const injectableMimeTypes=[{mime:"text/html",useXMLparser:!1},{mime:"application/xhtml+xml",useXMLparser:!0},{mime:"text/xml",useXMLparser:!0},{mime:"application/xml",useXMLparser:!0},{mime:"image/svg+xml",useXMLparser:!0}];let typeEl=args.find((arg=&gt;"object"==typeof arg&amp;&amp;"string"==typeof arg.type&amp;&amp;arg.type));if(void 0!==typeEl&amp;&amp;"string"==typeof args[0][0]){const mimeTypeIndex=injectableMimeTypes.findIndex((mimeType=&gt;mimeType.mime.toLowerCase()===typeEl.type.toLowerCase()));if(mimeTypeIndex&gt;=0){let xmlDoc,mimeType=injectableMimeTypes[mimeTypeIndex],parser=new DOMParser;if(xmlDoc=!0===mimeType.useXMLparser?parser.parseFromString(args[0].join(""),mimeType.mime):parser.parseFromString(args[0][0],mimeType.mime),0===xmlDoc.getElementsByTagName("parsererror").length){if("image/svg+xml"===typeEl.type){const scriptElem=xmlDoc.createElementNS("http://www.w3.org/2000/svg","script");scriptElem.setAttributeNS(null,"type","application/ecmascript"),scriptElem.innerHTML=`(${hookGeo})();`,xmlDoc.documentElement.insertBefore(scriptElem,xmlDoc.documentElement.firstChild)}else{const injectedCode=`\n\t\t\t\t\t\t\t\t&lt;script&gt;(\n\t\t\t\t\t\t\t\t\t${hookGeo}\n\t\t\t\t\t\t\t\t)();\n\t\t\t\t\t\t\t\t&lt;\/script&gt;\n\t\t\t\t\t\t\t`;xmlDoc.documentElement.insertAdjacentHTML("afterbegin",injectedCode)}!0===mimeType.useXMLparser?args[0]=[(new XMLSerializer).serializeToString(xmlDoc)]:args[0][0]=xmlDoc.documentElement.outerHTML}}}return((constructor,args)=&gt;{const bind=Function.bind;return new(bind.bind(bind)(constructor,null).apply(null,args))})(_Blob,args)}let propNames=Object.getOwnPropertyNames(_Blob);for(let i=0;i&lt;propNames.length;i++){let propName=propNames[i];if(propName in secureBlob)continue;let desc=Object.getOwnPropertyDescriptor(_Blob,propName);Object.defineProperty(secureBlob,propName,desc)}return secureBlob.prototype=_Blob.prototype,secureBlob}(Blob),"undefined"!=typeof chrome?setInterval((()=&gt;{chrome.runtime.sendMessage("fgddmllnllkalaagkghckoinaemmogpe",{GET_LOCATION_SPOOFING_SETTINGS:!0},(response=&gt;{updateHookedObj(response)}))}),500):void 0!==eventName&amp;&amp;document.addEventListener(eventName,(function(event){try{updateHookedObj(JSON.parse(event.detail))}catch(ex){}}))})();</script>
<desc>Created with Fabric.js 3.5.0</desc>
<defs>
</defs>
<rect x="0" y="0" width="100%" height="100%" fill="rgba(124,20,20,0)"/>
<g transform="matrix(1.3898 0 0 1.3731 499.9886 302.5186)" id="995443">
<path style="stroke: none; stroke-width: 1; stroke-dasharray: none; stroke-linecap: butt; stroke-dashoffset: 0; stroke-linejoin: miter; stroke-miterlimit: 4; is-custom-font: none; font-file-url: none; fill: rgb(0,0,0); fill-rule: nonzero; opacity: 1;" vector-effect="non-scaling-stroke" transform=" translate(-374.95, -375.0338)" d="M 257.5 474.7 c 1.2 3.6 4.8 6.1 4.4 10.7 c -3.3 -1 -6 -2.3 -7.4 -5.6 c -1.3 -3.1 -3.1 -6 -4.5 -9 c -2.3 -5 -3.5 -10.6 -6.6 -15.3 c -2.5 -3.8 -2.8 -7.9 -3.2 -12.2 c -0.1 -0.8 -0.3 -1.9 0.7 -2.1 c 0.9 -0.2 2 1.1 3.2 3 c 2.4 4 4.9 10.6 5.6 12 C 252.7 462.3 255.4 468.4 257.5 474.7 z M 702 475.9 c -0.6 -1.4 -1.1 -2.9 -1.4 -4.4 c -5.7 -4.3 -11.3 -8.6 -17.6 -12.1 c -3 -1.7 -5.8 -3.7 -8.4 -5.9 c 0 -0.4 -0.1 -0.8 -0.5 -1.2 c -3 -3.4 -6.1 -6.7 -9.1 -10.1 c -2.2 -3.7 -5.3 -6.8 -8.7 -9.3 c -5.4 -4 -10.4 -8.2 -14.9 -13 c -5.9 -6.3 -12.9 -8.9 -21.4 -8 c -4.6 0.5 -8 -1.7 -9.9 -5.6 c -2.7 -5.5 -7.6 -9.6 -12.5 -13 c -4.5 -3.1 -11.2 -6 -14.3 -10.5 c -1.3 -1.8 -3.1 -3.3 -4.1 -5.4 c -3.1 -6.2 -8.6 -9 -14.7 -11.5 c -2.6 -1 -4.5 -3 -6.1 -5.1 c -1.8 -2.3 -3.7 -4.2 -5.7 -6.4 c -1.9 -2 -2.5 -5.1 -4.3 -7.4 c -2.1 -2.7 -4.7 -5 -7.4 -7.1 c -4.3 -3.4 -8.6 -6.8 -12.2 -10.9 c -2.6 -3 -4.9 -4.9 -8.7 -2.6 c -3.1 1.9 -6.1 4 -8.8 6.4 c -1.2 1.1 -2.4 2.2 -3.4 3.4 c -0.9 1.1 -1.6 3.3 -2.7 4.2 c -5.5 4.6 -12.2 7.8 -17.7 12.4 c -1.8 1.5 -3.9 1 -5.1 -1.2 c -3.6 -6.4 -8.7 -11.5 -13.7 -16.7 c -1.1 -1.2 -2.4 -2.2 -3.7 -3 c -4.2 -2.4 -7.5 -5.8 -12.9 -5.1 c -0.2 -0.2 -0.3 -0.3 -0.5 -0.5 c -6.8 -6.1 -12.5 -13.2 -18.7 -19.8 c -1.5 -1.6 -2.5 -3.7 -3.9 -5.4 c -2.5 -3.1 -6.1 -4.6 -9.6 -6.3 c -6.6 -3 -12.4 -7.5 -18.2 -11.8 c -8.6 -6.3 -16.2 -13.4 -21.3 -23 c -2.4 -4.4 -5.9 -4.5 -9.8 -0.7 c -6.8 6.6 -13 13.8 -18.9 21.2 c -3.5 4.4 -7.5 8.2 -12 11.5 c -1 0.7 -1.9 1.5 -2.9 2.3 c -5.2 2.6 -9.6 6.3 -13.1 11.1 c -0.2 0.3 -0.3 0.6 -0.3 0.9 c -4.3 3.8 -8.2 7.6 -11.4 12.2 c -5.2 7.4 -10.5 14.8 -15.3 22.4 c -5.1 8.1 -12.5 14 -19.1 20.6 c -4.4 4.4 -9.4 8.4 -14.9 11.6 c -3.3 1.9 -6.4 1.6 -9.6 -0.7 c -1.4 -1 -2.9 -2.1 -4.4 -3 c 0 -0.5 -0.2 -1 -0.8 -1.4 c -4.4 -3 -9.5 -6 -13.6 -9.6 c -4.3 -3.9 -8.6 -7.8 -12.9 -11.7 c -2.9 -2.6 -6.7 -7.8 -11.2 -7.2 c -1.8 0.3 -5.9 1.5 -6.8 3.3 c -0.8 1.6 -1.2 3.3 -2 4.9 c -1.8 3.6 -4.2 6.7 -7.4 9 c -7.5 5.7 -13.5 13.1 -20.3 19.5 c -7.4 6.9 -16.5 11.2 -24.6 17.3 c -1.8 0.4 -3 2.6 -4.9 2.9 c -3.8 0.6 -7.4 2.4 -10.7 4.6 c -5.5 3.8 -6.8 10.6 -11.4 15.1 c -1.3 1.2 -2.4 2.6 -3.8 3.7 c -1.1 0.9 -2.7 1.5 -3.7 2.5 c -2.3 1.9 -4.6 3.7 -7 5.5 c -4.5 3.5 -9 6.1 -14 8.7 c -9.3 5 -17.9 10.6 -23.4 20 c -3.5 6 -8 11.3 -11.9 17 c -3.2 4.6 -5.9 9.6 -9.9 14 c 0.8 0.4 1.1 0.7 1.3 0.6 c 7.3 -2.7 14.8 -1.8 22.2 -1.4 c 6.5 0.3 11.1 -2.9 16 -6.9 c 4.3 -3.5 9.8 -6.6 14.6 -9.2 c 1.9 -1.1 4.5 -1.6 6.3 -2.8 c 1.7 -1.1 2.7 -3.3 4.3 -4.6 c 3.5 -2.8 5.7 -6.5 7.9 -10.4 c 1 -1.9 3.1 -2.8 5.3 -3.2 c 5 -0.8 8.2 -3.8 10.4 -8.3 c 2.5 -5 6.7 -8.7 11.1 -12 c 1.8 -1.4 3.8 -3.5 5.9 -4.2 c 3 -1 6.9 -0.6 10 -1.1 c 8 -1.2 14.7 -5.9 20.4 -11.5 c 6.1 -6.1 12 -12.2 15.6 -20.4 c 0.7 -1.7 3.1 -3.7 5.2 -5.3 c 5.5 -4 10.7 -8.4 9.6 -16.5 c -0.3 -2.3 0.4 -4.6 0.9 -6.9 c 1.5 -0.4 2.8 -1.3 3.1 -3 c 0 -0.1 0 -0.2 0 -0.3 c 1.1 -1.4 1.9 -0.9 4.8 1 c 0.1 0.1 0.2 0.1 0.3 0.2 c 2 2.1 4.3 3.8 6.7 5.3 c 9.1 7.7 18.4 15 29.5 19.9 c 6.5 2.9 11 7.9 12 15.4 c 0.5 4.1 2.7 7.7 4.7 11.2 c 1.1 2 1.3 6.2 4 6.7 c 0.7 0.1 1.6 0.2 2.1 0.7 c 0.4 0.4 0.5 1 0.6 1.6 c 0.9 4.2 4.3 6.2 7.5 8.7 c 10.2 7.9 17.4 20.7 29.4 26.1 c 6 2.7 11 7.1 16 11.4 c 8.7 7.4 17.8 15.9 28.4 20.4 c 1.5 0.6 3.6 2.3 4.7 0.5 c 1 -1.6 -0.4 -3.6 -1.8 -5 c -2.4 -2.3 -4.8 -4.6 -7.3 -6.7 c -2.2 -1.8 -3.1 -4.2 -3.8 -6.9 c -0.8 -3.2 0.2 -5.1 2.3 -7.6 c 2.6 -3 3.6 -6.5 4.8 -10.3 c 0.7 -2.4 2.1 -4.5 4.3 -5.9 c 2.4 -1.5 5.3 -1.6 7.6 -3.2 c 5.6 -3.9 8.7 -13.2 9.1 -19.7 c 0.4 -6.8 1.1 -13.6 1.4 -20.4 c 0.1 -1.9 0.8 -3.9 2.6 -4.8 c 1.2 -0.7 2.7 -0.9 4 -1.2 c 4.7 -1.2 2.9 -5.6 3.7 -8.9 c -0.4 1.5 2.7 0.2 2.9 0 c 2.4 -1.4 4.5 -4.6 7.5 -4.8 c 2.8 -0.2 4.6 2.7 6.1 4.7 c 2.6 3.5 5.4 6.8 9 9.4 c 7.7 5.7 13.6 12.9 16.1 22.3 c 0.5 1.8 1.8 4.9 2.6 6.6 c 3.2 6.6 5.7 13.5 9.3 19.9 c 0.5 1 5 8.4 7.5 8.6 c 0.8 0.1 1.3 -0.1 1.3 -1.1 c -0.2 -3.7 -3.1 -5.9 -4.9 -8.8 c -0.4 -0.7 -0.9 -3.4 -1.7 -5.8 c -2.8 -9 -6.2 -17.7 -10.7 -26.1 c -1.2 -2.2 -1.4 -5.2 -2.7 -7.6 c -2.3 -4.3 -6.3 -7.3 -9.6 -10.7 c -6.5 -6.8 -11.9 -13.8 -10.5 -24 c 1.3 -0.4 1.9 0.8 2.8 1.5 c 6.1 4.3 12.5 8.4 19.3 11.5 c 3.2 1.4 6 2.4 8.9 4.5 c 4.2 3.1 7.5 7.1 11.6 10.3 c 3.8 2.9 7.8 5.6 10.3 9.8 c 2.2 3.8 5.9 6.5 8.8 9.7 c 2.6 2.9 3.5 6.7 4.9 10.2 c 0.7 1.8 1.5 3.5 2.8 5 c 3.6 4.4 3.3 10.4 5.3 15.5 c 1.1 2.9 1.3 6.5 3.3 9.1 c 2 2.6 3.7 5.6 5 8.6 c 1.3 3 1.8 6.7 4.4 8.8 c 1.1 0.9 2.3 1.7 3.4 2.6 c 0.7 1.9 2 3.7 3.5 5.6 c 0.7 -7.5 -3 -14.2 -6.2 -20.6 c -4.3 -8.6 -5 -18.1 -6.6 -27.5 c 2.1 0 3.5 1 4.7 2 c 7.1 5.4 14.8 10.2 19.4 18.2 c 1 1.7 2.8 2.6 4.5 3.3 c 4 1.6 7.2 3.9 9.5 7.6 c 1.5 2.4 3.4 3.7 5.9 4.6 c 3 1.1 5.8 2.7 8.8 3.9 c 3.7 1.4 7.4 1.5 11 -0.2 c 1.2 -0.5 0.8 -2.4 -0.9 -3.1 c -2.7 -1.2 -5.3 -2.6 -8.1 -3.5 c -3.9 -1.3 -7.1 -3.6 -9.4 -6.6 c -3.6 -4.9 -8.4 -8.2 -13.2 -11.6 c -5.5 -3.9 -10.1 -8.8 -12.9 -14.9 c -2.2 -4.7 -5.6 -7.1 -10.2 -8.6 c -3 -1 -6.1 -1.9 -8.7 -3.6 c -11.8 -10.6 -20.9 -23.9 -33.2 -34.1 c -6.7 -5.6 -13.8 -11.3 -22.2 -15 c -6.5 -2.8 -13.1 -5.6 -17.6 -11.6 c -0.1 -0.1 -0.2 -0.2 -0.3 -0.3 c -0.1 -0.1 -0.1 -0.2 -0.2 -0.3 c -0.6 -0.8 -1.3 -1.5 -2 -2 c -0.1 -0.1 -0.1 -0.1 -0.2 -0.2 c -2.6 -2.6 -5.7 -4.7 -9.3 -5.8 c -3.8 -1.3 -9.6 1.7 -11.9 6 c -0.2 0.4 -0.2 1 -0.5 1.3 c -4.4 4.1 -7.3 9.4 -11.3 13.9 c -4.7 5.2 -10.4 6.1 -16.3 9.3 c -4.3 2.4 -6.7 7.6 -10 11.2 c -4 4.5 -7.6 9.3 -9.2 15.2 c -0.5 2.1 -2 3.7 -3.6 5.1 c -2.9 2.8 -6.2 4.9 -9.8 6.7 c -1.3 0.6 -2.7 1.3 -3.5 2.4 c -4 5.1 -10.3 6.6 -15.3 10.2 c -2.1 1.5 -3.8 1.3 -5.8 -0.9 c -2.8 -3.1 -6.5 -5.2 -8.1 -9.5 c -0.9 -2.3 -1.4 -3.6 -0.9 -4.4 c 3.4 -0.7 6.6 -1.7 9.8 -3.2 c 1.4 -0.6 1 -2.2 0 -2.9 c 4.7 -7.9 9.3 -15.3 11.1 -23.9 c 1.8 -8.6 1.3 -17.6 3.5 -26.2 c 1.1 -4.4 2.7 -8.3 6.7 -11.3 c 3.7 -2.7 5.7 -7.2 8.4 -10.9 c 0.9 -1.2 0.9 -2.8 0.8 -4.4 c -0.5 -6.9 0.2 -15 6.2 -19.4 c 3.8 -2.9 6.8 -6.8 8.5 -11.3 c 1.8 -4.7 1.3 -9.7 4.8 -13.7 c 3.2 -3.6 5.8 -7.5 6.7 -12.3 c 0.4 -2 1.9 -3.4 3.4 -4.3 c 3.3 -2 9.4 6.4 11.5 8.2 c 6.9 6 14.5 11.4 22 16.6 c 2.9 2 6.2 3.6 9.3 5.4 c 4.5 2.5 7.2 7.5 10.5 11.3 c 1.5 1.8 1.4 3.1 -1.1 3 c -6.5 -0.3 -11.7 3.3 -17.4 5.7 c -1.6 0.7 -3.2 1.5 -3.9 3.9 c 3.3 -0.4 6.3 -0.6 9.3 -1.1 c 3.6 -0.7 7 0.6 10.4 1.6 c 3.7 1.1 7.4 1.1 11.2 1.5 c 8.1 0.9 17.4 2.8 22.9 9.1 c 5.6 6.4 10.4 13.4 14.8 20.6 c 3.8 6.1 7.9 12.1 11.9 18 c 0.6 0.9 1.5 2.4 2.7 1.8 c 1.2 -0.6 0.5 -2.1 0.3 -3.2 c -0.2 -1.3 -0.6 -2.5 -0.4 -4.1 c 6.1 1.3 11.2 4.3 15.1 8.6 c 9.6 10.7 18.2 22.2 27 33.5 c 2.2 2.8 3.2 5.8 4.2 8.9 c 1.1 3.3 2.5 6.4 4.9 9 c 3.6 3.9 5.5 8.8 8.4 13.1 c 0.7 1 1.1 2.1 2.7 2.1 c 0.7 -1.6 0.5 -3.7 -0.2 -4.7 c -3.4 -4.9 -3.4 -10.8 -5 -16.2 c -0.6 -2.1 -0.8 -3.4 -0.3 -4.3 c 1.6 0.2 3.2 0.3 4.9 0.5 c 5.4 2.6 10.5 5.8 16.2 7.9 c 4 1.4 7.5 3.5 10.4 6.6 c 3.4 3.6 7.4 6.3 11.5 8.8 c 1.1 0.7 1.4 2.7 2 4.1 c 1.9 4.5 2.6 9.3 3.4 14.1 c 0.5 3 1.3 5.9 4 9.2 c -0.9 -7.3 -2.4 -13.8 -2.5 -20.9 c 5.4 3 11.1 4.3 14.7 9.5 c 1.7 2.4 4.9 3.5 7.4 5.1 c 3.3 2 6.8 3.5 10.2 4.9 c 3.8 1.6 7.8 2.6 12.3 2.7 c -0.6 -2.2 -2.5 -2.8 -3.9 -3.6 c -11.5 -6 -21.4 -14.1 -30.6 -23.2 c -2.8 -2.8 -5.4 -5.9 -8.1 -8.9 c -5 -5.5 -9.6 -11.4 -15.8 -15.8 c -5.4 -3.9 -9.1 -9.5 -13.6 -14.3 c -5.5 -5.9 -12.4 -10.2 -18.2 -15.7 c -7.1 -6.8 -15.6 -11.5 -23.9 -16.7 c -4.7 -3 -5.9 -8.4 -7.3 -13.4 c -1.2 -4.2 -1.2 -8.5 0.1 -12.6 c 1.4 -4.4 1.8 -8.8 1.8 -13.3 c 0 -1.4 0.1 -2.7 1.3 -3.3 c 1.2 -0.6 2.1 0.7 3.1 1.4 c 7.4 5.2 11.5 13.1 16.7 20.2 c 1.8 2.5 3.5 5 3.9 8.2 c 0.3 2 1.8 3.2 3.6 4.1 c 3.5 1.8 6.9 3.6 10.4 5.3 c 3.4 1.7 6.1 3.9 8.1 7.2 c 5.1 9.1 11.9 16.2 22.2 20 c 4.9 1.8 9 6 12.4 10.3 c 1 1.3 1.4 3 0.1 4.2 c -2 1.8 -2 4.7 -4 6.5 c -1.3 1.1 -0.3 2.9 1.3 2.6 c 1.1 -0.2 2.4 -1.9 3.2 -2.6 c 3.7 -3.2 6.4 -4.8 11.4 -5 c 4.8 -0.1 9 1.4 13.4 3.3 c 12 5.4 20.2 15 28.7 24.4 c 4.2 4.7 8.2 9.8 14.2 12.6 c 1.9 0.9 2.7 2.6 3.2 4.5 c 0.9 3.1 2.8 5.6 4.8 8.2 c 0.7 -0.3 1.5 -0.5 2.3 -0.7 c -0.5 -2.7 -2.5 -4.8 -2.6 -7.4 c 1.4 -0.1 2.2 0.9 3 1.5 C 690.7 469.4 695.9 473.3 702 475.9 z M 318.8 478.3 c -0.9 -2.1 -1.9 -4 -4.1 -5.7 c -0.9 -1.8 -2.4 -3.4 -4.6 -4.7 c -8.9 -5.5 -18.3 -10 -27.3 -15.2 c -3.4 -2 -6 -5.1 -8.6 -8 c -2.8 -3.1 -5.8 -5.2 -9.3 -7.4 c -9.1 -5.8 -18.1 -12.4 -26 -19.8 c 0 0 0 0 0 0 c -0.3 -2.1 -2.2 -3.7 -4.2 -4.1 c -0.1 0 -0.1 0 -0.2 0 c -1.8 -3.5 -5.2 -6.5 -8.7 -7 c -2.3 -0.3 -4.2 0.8 -5.8 2.2 c -3.8 3.3 -7.5 7 -11.5 10.1 c -4.1 3.2 -8.5 6.9 -13 9.4 c -4.3 2.4 -9.7 1.7 -14.3 1.6 c -3.9 -0.1 -6.9 1.3 -9.5 4.1 c -4 4.3 -9.8 6.6 -13.5 11 c -0.3 0.4 -3.8 0.4 -4.5 0.5 c -1.6 0.4 -3.2 0.9 -4.6 1.7 c -2.9 1.5 -5 3.8 -7.5 5.9 c -6 5 -11.6 10.5 -17.2 16 c -1.2 1.2 -2.6 0.9 -3.4 1.8 c -6 6.1 -13.9 10.8 -16.6 19.7 c -0.3 1 -1.2 1.8 -0.6 3.1 c 4.9 -4.3 9.9 -8.5 14.7 -12.9 c 2 -1.8 5.1 -2.1 7.1 -3.9 c 0.7 -0.6 4.8 -5 5.9 -3.2 c 0.8 1.3 0.4 3.6 -0.7 5.4 c -2.4 3.8 -4.6 7.6 -7.5 11.1 c 5.8 -2.5 9.6 -6.9 12.7 -12.1 c 3.3 -5.7 7.5 -10.5 13.2 -14.1 c 7.1 -4.5 15 -7.4 22.1 -11.8 c 2.1 -1.3 3.8 -3.2 6.1 -4.1 c 1.2 0.2 2.9 0.5 4.1 0.2 c 0.3 0.2 0.6 0.5 0.9 0.7 c -0.5 1.3 -1.4 2.6 -2.3 3.7 c -4.3 5.2 -8.5 10.5 -13.1 15.5 c -0.3 0.4 -0.6 0.7 -0.8 1.1 c -2 1.4 -3.7 3 -5.1 5 c -4.5 4.1 -9.6 7.5 -13.4 12.4 c -2.5 3.2 -1.9 5.6 2.1 6.4 c 6.2 1.2 12.1 0.2 17.2 -3.7 c 4.2 -3.1 8.7 -4.6 13.9 -4.7 c 4.8 -0.1 8.9 -1.8 12.6 -5 c 3.2 -2.8 7.6 -4.1 10.4 -7.5 c 3.6 -4.3 7.4 -8.5 8.8 -14 c 0.6 -2.4 2.3 -3.9 3.7 -5.7 c 1.6 -2 5.2 -2.6 7.3 -3.8 c 3.1 -1.9 3.7 -5.2 4.2 -8.5 c 0.6 -4.7 3.1 -7.8 6.2 -10.8 c 2.1 -2 4.2 -2.1 6.1 0.3 c 4.8 6.3 11.6 9.6 18.4 13 c 4 2 7.8 4.4 10.7 8.4 c 3.1 4.2 5.9 8.6 8.8 13 c 2 3.1 3.4 8.3 6.4 10.4 c 4.6 3.2 7.6 5.9 10.6 10.7 c 1.5 2.5 3.3 4.8 6.2 7.4 c -0.8 -8.9 -2.5 -16.5 -9.2 -21.8 c -2.7 -2.2 -3.4 -5.1 -4.1 -8.7 c 7.4 2.5 13.3 6.5 18.8 11.2 c 2.9 2.5 5.8 5.5 9.1 7.6 c 0.7 3 4.4 2.8 5.9 5.1 c -0.7 -1 -0.8 -3.1 -1.3 -4.3 C 319.6 480.3 319.2 479.2 318.8 478.3 z" stroke-linecap="round"/>
</g>
<g transform="matrix(1 0 0 1 516.2498 589.7784)" style="" id="422169">
		
<path xml:space="preserve" font-family="Amarante" font-size="129" font-style="normal" font-weight="normal" style="stroke: none; stroke-width: 1; stroke-dasharray: none; stroke-linecap: butt; stroke-dashoffset: 0; stroke-linejoin: miter; stroke-miterlimit: 4; is-custom-font: none; font-file-url: none; fill: rgb(0,0,0); fill-rule: nonzero; opacity: 1; white-space: pre;" d="M-259.67 17.22L-259.67 17.22Q-257.97 19.55-257.97 23.96Q-257.97 28.37-258.35 30.98Q-258.72 33.60-259.54 35.74L-259.54 35.74Q-261.43 40.52-264.52 40.52L-264.52 40.52L-315.54 40.52Q-310.69 37.94-309.12 35.55L-309.12 35.55Q-306.15 31.08-306.15 24.21L-306.15 24.21Q-306.22 7.39-306.22-6.21L-306.22-6.21L-306.22-39.35Q-306.22-48.73-309.18-52.95L-309.18-52.95Q-310.31-54.46-311.89-55.85L-311.89-55.85L-264.52-55.85Q-260.24-54.34-258.66-45.27L-258.66-45.27Q-258.22-42.75-258.22-40.35L-258.22-40.35Q-258.22-35.44-259.67-32.54L-259.67-32.54L-263.07-39.35Q-266.47-46.02-272.83-48.29L-272.83-48.29Q-276.36-49.55-280.77-49.55Q-285.18-49.55-287.07-49.27Q-288.96-48.98-289.97-47.91L-289.97-47.91Q-291.60-46.08-291.60-40.95Q-291.60-35.82-291.35-33.83Q-291.10-31.85-290.16-30.59L-290.16-30.59Q-288.20-28.13-281.90-28.13L-281.90-28.13L-262.13-28.13Q-263.57-24.48-265.09-22.97L-265.09-22.97Q-268.11-19.94-273.27-19.94L-273.27-19.94Q-275.29-19.94-277.12-20.39L-277.12-20.39Q-280.52-21.20-283.10-21.20Q-285.68-21.20-287.35-20.73Q-289.02-20.26-289.97-19.25L-289.97-19.25Q-291.60-17.49-291.60-12.89L-291.60-12.89L-291.60 17.16Q-291.60 29.00-290.28 31.20Q-288.96 33.41-287.07 33.82Q-285.18 34.23-280.77 34.23Q-276.36 34.23-272.77 32.97Q-269.18 31.71-266.76 29.44Q-264.33 27.17-262.76 24.05Q-261.18 20.93-259.67 17.22Z"/><path xml:space="preserve" font-family="Amarante" font-size="129" font-style="normal" font-weight="normal" style="stroke: none; stroke-width: 1; stroke-dasharray: none; stroke-linecap: butt; stroke-dashoffset: 0; stroke-linejoin: miter; stroke-miterlimit: 4; is-custom-font: none; font-file-url: none; fill: rgb(0,0,0); fill-rule: nonzero; opacity: 1; white-space: pre;" d="M-201.46-32.29L-196.04-21.52Q-189.68-31.66-186.66-41.80L-186.66-41.80Q-185.14-46.84-185.14-49.49Q-185.14-52.13-186.34-55.85L-186.34-55.85L-167.44-55.85Q-169.21-53.39-170.47-51.06L-170.47-51.06L-187.35-19.44L-191.25-11.82Q-174.37 22.01-172.36 25.66L-172.36 25.66L-169.27 31.33Q-168.14 33.28-167.19 34.86L-167.19 34.86L-163.35 40.52L-189.49 40.52Q-187.92 35.99-187.92 33.97L-187.92 33.97Q-187.92 27.30-193.77 13.94L-193.77 13.94Q-196.92 6.83-200.70-0.86L-200.70-0.86Q-213.87 22.07-213.87 33.72L-213.87 33.72Q-213.87 36.62-212.48 40.52L-212.48 40.52L-232.32 40.52Q-230.81 38.95-229.05 35.55L-229.05 35.55L-205.80-10.62L-219.22-35.06Q-221.17-38.72-222.65-41.71Q-224.13-44.70-225.27-46.78L-225.27-46.78L-227.41-50.43Q-229.11-53.27-231.19-55.85L-231.19-55.85L-205.05-55.85Q-206.56-52.19-206.56-49.86L-206.56-49.86Q-206.56-43.75-203.73-37.20L-203.73-37.20Q-202.72-34.81-201.46-32.29L-201.46-32.29Z"/><path xml:space="preserve" font-family="Amarante" font-size="129" font-style="normal" font-weight="normal" style="stroke: none; stroke-width: 1; stroke-dasharray: none; stroke-linecap: butt; stroke-dashoffset: 0; stroke-linejoin: miter; stroke-miterlimit: 4; is-custom-font: none; font-file-url: none; fill: rgb(0,0,0); fill-rule: nonzero; opacity: 1; white-space: pre;" d="M-139.03-27.50L-139.03-27.50Q-140.54-31.16-140.54-36.13Q-140.54-41.11-140.16-44.29Q-139.78-47.47-139.15-50.05L-139.15-50.05Q-137.64-55.85-135.44-55.85L-135.44-55.85L-79.94-55.85Q-76.29-55.85-75.03-45.01L-75.03-45.01Q-74.71-41.99-74.71-38.78L-74.71-38.78Q-74.71-31.22-76.35-27.50L-76.35-27.50Q-81.77-44.32-90.40-49.05L-90.40-49.05Q-92.35-50.18-94.24-50.18Q-96.13-50.18-97.20-49.20Q-98.27-48.23-98.97-46.08L-98.97-46.08Q-100.10-42.31-100.10-37.01L-100.10-37.01L-100.10-13.39L-100.04 5.88L-100.04 24.15Q-100.04 30.32-98.43 33.25Q-96.82 36.18-95.15 37.69Q-93.49 39.20-91.22 40.52L-91.22 40.52L-123.40 40.52Q-118.87 36.81-117.61 34.41L-117.61 34.41Q-115.28 30.07-115.28 24.15L-115.28 24.15L-115.28-32.61Q-115.28-42.49-116.03-45.36Q-116.79-48.23-117.86-49.20Q-118.93-50.18-120.82-50.18Q-122.71-50.18-124.66-49.08Q-126.62-47.97-128.48-46.18Q-130.33-44.38-132.00-42.02Q-133.67-39.66-135.06-37.14L-135.06-37.14Q-137.77-32.16-139.03-27.50Z"/><path xml:space="preserve" font-family="Amarante" font-size="129" font-style="normal" font-weight="normal" style="stroke: none; stroke-width: 1; stroke-dasharray: none; stroke-linecap: butt; stroke-dashoffset: 0; stroke-linejoin: miter; stroke-miterlimit: 4; is-custom-font: none; font-file-url: none; fill: rgb(0,0,0); fill-rule: nonzero; opacity: 1; white-space: pre;" d="M-14.99-19.31L-14.99-19.31Q-22.30-19.31-22.30-10.69L-22.30-10.69Q-22.30 25.09-21.10 31.45L-21.10 31.45Q-20.41 35.30-19.34 37.19L-19.34 37.19L-17.45 40.52L-39.81 40.52Q-37.79 35.74-37.45 32.52Q-37.10 29.31-36.85 25.66L-36.85 25.66Q-36.34 18.23-36.34 5.69L-36.34 5.69Q-36.34-9.49-36.85-22.02L-36.85-22.02L-37.54-39.35Q-37.79-45.90-38.67-48.48L-38.67-48.48Q-40.06-52.57-43.21-55.85L-43.21-55.85L-9.89-55.85Q5.35-55.85 12.16-52.82L12.16-52.82Q19.34-49.68 19.34-42.05L19.34-42.05Q19.34-35.38 14.36-29.52L14.36-29.52Q9.70-24.10 2.14-20.89L2.14-20.89Q3.09 3.30 17.32 25.53L17.32 25.53Q23.43 35.17 29.79 40.52L29.79 40.52L6.17 40.52Q-0.00 32.08-5.23 6.32L-5.23 6.32Q-6.99-2.62-7.53-8.54Q-8.06-14.46-8.41-15.69Q-8.76-16.92-9.51-17.68L-9.51-17.68Q-11.02-19.31-14.99-19.31ZM-0.47-30.56Q1.26-32.42 1.98-34.56Q2.71-36.70 2.71-38.68Q2.71-40.67 2.17-42.65Q1.64-44.64 0.06-46.15L0.06-46.15Q-3.40-49.55-12.03-49.55L-12.03-49.55Q-15.24-49.55-17.23-49.30Q-19.21-49.05-20.35-47.91L-20.35-47.91Q-22.30-46.02-22.30-38.27L-22.30-38.27Q-22.30-31.47-20.85-29.58L-20.85-29.58Q-18.27-26.24-13.04-26.24Q-7.81-26.24-5.01-27.47Q-2.20-28.70-0.47-30.56Z"/><path xml:space="preserve" font-family="Amarante" font-size="129" font-style="normal" font-weight="normal" style="stroke: none; stroke-width: 1; stroke-dasharray: none; stroke-linecap: butt; stroke-dashoffset: 0; stroke-linejoin: miter; stroke-miterlimit: 4; is-custom-font: none; font-file-url: none; fill: rgb(0,0,0); fill-rule: nonzero; opacity: 1; white-space: pre;" d="M107.15 17.22L107.15 17.22Q108.85 19.55 108.85 23.96Q108.85 28.37 108.48 30.98Q108.10 33.60 107.28 35.74L107.28 35.74Q105.39 40.52 102.30 40.52L102.30 40.52L51.28 40.52Q56.13 37.94 57.71 35.55L57.71 35.55Q60.67 31.08 60.67 24.21L60.67 24.21Q60.61 7.39 60.61-6.21L60.61-6.21L60.61-39.35Q60.61-48.73 57.64-52.95L57.64-52.95Q56.51-54.46 54.94-55.85L54.94-55.85L102.30-55.85Q106.59-54.34 108.16-45.27L108.16-45.27Q108.60-42.75 108.60-40.35L108.60-40.35Q108.60-35.44 107.15-32.54L107.15-32.54L103.75-39.35Q100.35-46.02 93.99-48.29L93.99-48.29Q90.46-49.55 86.05-49.55Q81.64-49.55 79.75-49.27Q77.86-48.98 76.86-47.91L76.86-47.91Q75.22-46.08 75.22-40.95Q75.22-35.82 75.47-33.83Q75.72-31.85 76.67-30.59L76.67-30.59Q78.62-28.13 84.92-28.13L84.92-28.13L104.70-28.13Q103.25-24.48 101.74-22.97L101.74-22.97Q98.71-19.94 93.55-19.94L93.55-19.94Q91.53-19.94 89.71-20.39L89.71-20.39Q86.30-21.20 83.72-21.20Q81.14-21.20 79.47-20.73Q77.80-20.26 76.86-19.25L76.86-19.25Q75.22-17.49 75.22-12.89L75.22-12.89L75.22 17.16Q75.22 29.00 76.54 31.20Q77.86 33.41 79.75 33.82Q81.64 34.23 86.05 34.23Q90.46 34.23 94.05 32.97Q97.64 31.71 100.07 29.44Q102.49 27.17 104.07 24.05Q105.64 20.93 107.15 17.22Z"/><path xml:space="preserve" font-family="Amarante" font-size="129" font-style="normal" font-weight="normal" style="stroke: none; stroke-width: 1; stroke-dasharray: none; stroke-linecap: butt; stroke-dashoffset: 0; stroke-linejoin: miter; stroke-miterlimit: 4; is-custom-font: none; font-file-url: none; fill: rgb(0,0,0); fill-rule: nonzero; opacity: 1; white-space: pre;" d="M170.40 1.85L158.63-33.99Q158.37-24.79 158.37-14.97L158.37-14.97Q158.37-1.55 158.81 13.94Q159.26 29.44 159.48 31.55Q159.70 33.66 160.07 35.23L160.07 35.23Q160.77 38.13 162.34 40.52L162.34 40.52L144.77 40.52Q147.16 37.12 147.63 33.22Q148.11 29.31 148.36 25.66L148.36 25.66Q148.86 18.23 148.86 5.69L148.86 5.69Q148.86-9.49 148.36-22.02L148.36-22.02L147.67-39.35Q147.29-48.92 144.58-52.95L144.58-52.95Q143.57-54.46 142.00-55.85L142.00-55.85L166.63-55.85Q169.08-45.08 172.74-32.98L172.74-32.98L184.20 3.61L201.77-55.85L226.34-55.85Q223.25-53.14 222.31-50.31L222.31-50.31Q220.92-45.96 220.73-40.23L220.73-40.23L220.29-29.08Q219.47-9.49 219.47 5.69L219.47 5.69Q219.47 31.14 221.80 38.00L221.80 38.00Q222.24 39.26 222.94 40.52L222.94 40.52L203.10 40.52Q204.80 37.19 205.02 33.31Q205.24 29.44 205.43 22.64L205.43 22.64Q206.18 0.27 206.18-9.93L206.18-9.93Q206.18-26.75 205.87-34.94L205.87-34.94L182.69 40.52L170.40 1.85Z"/><path xml:space="preserve" font-family="Amarante" font-size="129" font-style="normal" font-weight="normal" style="stroke: none; stroke-width: 1; stroke-dasharray: none; stroke-linecap: butt; stroke-dashoffset: 0; stroke-linejoin: miter; stroke-miterlimit: 4; is-custom-font: none; font-file-url: none; fill: rgb(0,0,0); fill-rule: nonzero; opacity: 1; white-space: pre;" d="M312.26 17.22L312.26 17.22Q313.97 19.55 313.97 23.96Q313.97 28.37 313.59 30.98Q313.21 33.60 312.39 35.74L312.39 35.74Q310.50 40.52 307.41 40.52L307.41 40.52L256.39 40.52Q261.24 37.94 262.82 35.55L262.82 35.55Q265.78 31.08 265.78 24.21L265.78 24.21Q265.72 7.39 265.72-6.21L265.72-6.21L265.72-39.35Q265.72-48.73 262.76-52.95L262.76-52.95Q261.62-54.46 260.05-55.85L260.05-55.85L307.41-55.85Q311.70-54.34 313.27-45.27L313.27-45.27Q313.71-42.75 313.71-40.35L313.71-40.35Q313.71-35.44 312.26-32.54L312.26-32.54L308.86-39.35Q305.46-46.02 299.10-48.29L299.10-48.29Q295.57-49.55 291.16-49.55Q286.75-49.55 284.86-49.27Q282.98-48.98 281.97-47.91L281.97-47.91Q280.33-46.08 280.33-40.95Q280.33-35.82 280.58-33.83Q280.83-31.85 281.78-30.59L281.78-30.59Q283.73-28.13 290.03-28.13L290.03-28.13L309.81-28.13Q308.36-24.48 306.85-22.97L306.85-22.97Q303.82-19.94 298.66-19.94L298.66-19.94Q296.64-19.94 294.82-20.39L294.82-20.39Q291.42-21.20 288.83-21.20Q286.25-21.20 284.58-20.73Q282.91-20.26 281.97-19.25L281.97-19.25Q280.33-17.49 280.33-12.89L280.33-12.89L280.33 17.16Q280.33 29.00 281.65 31.20Q282.98 33.41 284.86 33.82Q286.75 34.23 291.16 34.23Q295.57 34.23 299.16 32.97Q302.75 31.71 305.18 29.44Q307.60 27.17 309.18 24.05Q310.75 20.93 312.26 17.22Z"/></g>
</svg>